<svg width="2044" height="2048" xmlns="http://www.w3.org/2000/svg" preserveAspectRatio="xMidYMid meet">

 <g>
  <title>background</title>
  <rect fill="none" id="canvas_background" height="402" width="582" y="-1" x="-1"/>
 </g>
 <g>
  <title>Layer 1</title>
  <g id="svg_1" fill="#000000" transform="translate(0, 2048) scale(0.1, -0.1)">
   <path id="svg_2" d="m6308.997559,18886.003906c-6,-6 -485,-34 -612,-36c-59,0 -113,-3 -120,-5c-7,-2 -43,-7 -82,-10c-184,-14 -535,-110 -584,-160c-12,-11 -17,-41 -19,-109c-3,-78 1,-109 24,-192c60,-218 71,-271 73,-355l2,-86l-48,-6c-51,-7 -66,-10 -208,-34c-49,-8 -117,-19 -150,-24c-33,-4 -85,-13 -115,-19c-30,-6 -91,-17 -135,-25c-44,-7 -163,-26 -265,-43c-398,-66 -788,-116 -1045,-133c-161,-11 -478,-5 -665,12c-189,18 -455,-1 -605,-42c-107,-29 -176,-61 -169,-79c5,-14 94,-319 174,-600c21,-74 80,-254 130,-400c155,-447 172,-517 235,-995c40,-302 88,-535 185,-890c49,-177 145,-557 155,-610c4,-22 7,-99 6,-170c-1,-94 5,-179 24,-305c32,-227 80,-490 135,-750c129,-603 212,-1046 241,-1280c6,-52 13,-104 15,-115c9,-46 24,-219 19,-223c-10,-11 19,-43 68,-76c29,-19 63,-46 76,-60c16,-17 32,-24 45,-21c12,2 59,7 106,10c143,9 493,65 730,115c91,20 422,102 620,155c195,52 377,75 885,110c323,23 480,37 555,50c14,3 61,9 105,15c44,6 111,18 149,26c38,8 72,11 77,7c27,-29 232,-1000 264,-1253c3,-25 12,-81 20,-125c8,-44 20,-120 26,-170c6,-49 13,-99 15,-110c1,-11 21,-153 43,-315c23,-162 50,-362 61,-445c12,-82 25,-172 31,-200c5,-27 16,-99 24,-160c29,-221 96,-587.999512 171,-932.999512c15,-68 16,-85 5,-91c-7,-5 -63,-21 -124,-36c-185,-46 -345,-102 -475,-166c-102,-51 -136,-74 -206,-140c-132,-124 -195,-265 -182,-405c18,-193 115,-319 282,-365c37,-10 69,-21 72,-24c3,-3 -10,-22 -30,-43c-43,-45 -79,-109 -104,-182c-38,-112 -21,-377 31,-477c8,-15 15,-31 15,-35c0,-24 84,-139 135,-185l61,-55l-22,-106c-77,-366 -42,-878 92,-1352c131,-460 351,-878 585,-1109c78,-76 174,-139 387,-249c103,-54 212,-115 243,-136c53,-35 58,-41 79,-109c75,-246 147,-426 182,-454c19,-15 124,1 288.000488,44c319,84 455,110 478,90c12,-10 14,-38 9,-165c-10,-241 -43,-434 -162,-972c-108,-484 -134,-666 -138,-958l-2,-122l220,0l220,0l0,62c0,35 12,160 27,278c15,118 34,296 43,395c8,99 19,225 25,280c5,55 14,190 20,300c6,110 15,238 20,285c5,47 12,139 15,205c7,128 19,274 35,395c5,41 9,80 10,86c0,6 63,35 140,64c137,51 141,54 135,79c-3,14 -14,87 -25,161c-17,113 -19,172 -16,360c6,313 27,445 154,970c124,512 123,504 242,1460c6,47 18,100 27,118c10,19 49,57 91,87c137,101 162,129 162,184c0,29 -29,61 -55,61c-6,0 -37,-16 -69,-35c-32,-19 -65,-35 -74,-35c-16,0 -17,-12 18,200c24,139 38,542 23,638l-8,52l-32,-22c-70,-50 -104,-133 -127,-308c-8,-63 -22,-139 -31,-167c-31,-103 -74,-55 -125,143c-18,65 -40,138 -50,161c-18,40 -63,93 -81,93c-4,0 -15,-20 -25,-45c-32,-86 -15,-166 107,-510l43,-120l0,-150c0,-170 -13,-246 -94,-573c-45,-186 -62,-265 -109,-527c-23,-125 -67,-408 -78,-505c-15,-122 -47,-71 -100,155c-29,128 -58,318 -79,530c-20,201 -58,460 -83,568c-12,48 -21,96 -21,106c0,11 15,42 34,70c46,68 73,143 87,243c11,75 10,92 -10,177c-12,51 -35,120 -53,153c-35,66 -110,145 -164,174l-36,19l6,55c11,93 -33,711 -61,869c-6,33 -5,34 23,28c164,-35 204,-33 331,15c92,34 245,175 288,263c76,162 52,373 -63,542c-23,34 -42,73 -42,87.999512c0,48 48,143 127,252c44,59 90,125 102,146c12,20 29,37 37,37c8,0 31,-37 54,-86c72,-155 199,-336 302,-428.999512c71,-64 185,-138 247,-161c32,-11 51,-24 51,-34c0,-9 -22,-182 -50,-385c-27,-204 -56,-440 -65,-525c-8,-85 -20,-191 -25,-235c-6,-44 -10,-228 -10,-409c0,-361 16,-552 65,-767c133,-579 477,-994 1060,-1279c301,-147 611,-247 1236,-399c328,-80 463,-95 844,-96c373,0 508,15 770,85c198,53 361,127 513,236c230,164 444,324 507,380c129,114 371,359 406,409c174,256 249,489 288,900c14,141 15,645 2,890c-6,105 -15,315 -21,468l-11,277l33,48c32,46 168,186 382,392c114,109 181,192 222,273c37,72.999512 32,76.999512 165,-114c315,-449 538,-825 774,-1304c194,-392 461,-996 451,-1021c-8,-22 -129,-101 -241,-157c-152,-77 -339,-148 -550,-212c-49,-15 -117,-35 -150,-45c-33,-10 -85,-25 -115,-34c-126,-35 -278,-79 -319,-92c-65,-20 -87,-18 -109,14c-68,96 -108,230 -98,330c11,105 48,194 179,427c32,59 64,126 82,176c12,34 12,35 -9,35c-18,-1 -21,5 -21,39c0,30 -4,40 -17,43c-28,5 -110,-86 -161,-179c-94,-172 -133,-205 -163,-134c-16,39 -18,152 -4,205c5,19 19,69 31,111c25,87 21,134 -14,175l-22,25l-35,-23c-74,-50 -102,-137 -125,-381c-9,-97 -25,-197 -36,-234l-21,-66l36,-77c82,-180 114,-343 151,-775c18,-207 48,-420 71,-503c23,-86 66,-202 75,-208c5,-3 9,-13 9,-22c0,-12 -26,-28 -83,-51c-45,-19 -100,-42 -122,-52c-22,-9 -94,-41 -160,-70c-702,-305 -999,-559 -1104,-942c-27,-99 -26,-135 4,-237c39,-129 89,-222 165,-303c200,-213 460,-251 1045,-152c303,52 467,76 473,71c8,-9 62,-199 83,-291c47,-218 76,-427 119,-875c61,-620 102,-885 171,-1098c13,-40 20,-81 17,-112l-3,-50l178,0l177,0l1,43c1,23 1,45 0,49c0,5 -7,50 -15,100c-8,51 -37,232 -65,403c-27,171 -55,344 -61,385c-6,41 -20,129 -31,195c-10,66 -23,154 -28,195c-5,41 -19,143 -30,225c-11,83 -21,160 -21,173c0,34 35,28 110,-18c36,-22 81,-45 101,-50c35,-10 36,-11 42,-70c9,-82 48,-188 95,-257c61,-89 116,-132 256,-202l91,-46l260,0c408,0 665,49 911,173c244,123 390,274 514,534c111,234 172,451 192,685c34,397 -90,874 -317,1220c-74,112 -253,292 -360,362c-91,60 -213,121 -299,149l-59,20l-2,128c-1,106 -6,147 -29,228c-32,115 -26,99 -149,411c-52,132 -103,266 -113,298l-18,59l24,19c14,10 46,26 72,34c77,26 82,8 -86,358c-36,76 -66,140 -66,142c0,1 -35,76 -79,166c-43,90 -93,196 -111,234c-44,96 -410,827 -420,840c-4,5 -29,51 -55,100c-187,353 -524,879 -719,1120.999512c-23,28 -52,66 -66,84c-14,18 -42,52 -63,74c-32,35 -36,46 -32,76c9,53 -21,243 -55,352c-17,53 -57,167 -91,252c-50,127 -72,170 -126,243c-150,200 -289,352 -364,396c-24,14 -93,46 -153,71c-61,25 -120,56 -133,68c-18,18 -28,52 -47,149c-13,69 -27,152 -31,185c-3,32 -8,73 -10,89c-2,17 -14,111 -25,210c-62,524 -161,834 -336,1053c-139,173 -270,258 -597,386c-384,150 -869,295 -1177,351c-68,13 -67,11 -79,93c-7,42 -14,87 -16,100c-2,13 -7,53 -10,90c-3,37 -10,92 -15,122c-15,94 -47,572 -56,841l-6,185l-62,-8c-58,-7 -171,-36 -358,-92c-180,-53 -261,-76 -273,-76c-6,0 -17,12 -24,27c-25,54 -114,153 -187,208c-160,121 -321,170 -559,170c-262,0 -502,-75 -735,-230c-183,-122 -332,-315 -385,-497c-9,-32 -20,-58 -24,-58c-9,0 -74,200 -105,325c-28,113 -73,355 -80,430c-2,28 -9,93 -15,145c-6,52 -15,172 -21,265c-21,331 -67,860 -84,950c-2,11 -7,49 -11,85c-9,88 -41,296 -70,460c-14,74 -29,160 -34,190c-5,30 -29,179 -55,330c-53,324 -92,578 -111,745c-8,66 -19,156 -24,200c-11,80 -22,237 -41,565c-15,243 -35,391 -67,490l-28,85l-70,3c-38,2 -124,-1 -190,-7c-66,-6 -169,-13 -230,-16c-104,-5 -220,-14 -275,-21c-14,-1 -81,-8 -150,-14c-135,-11 -200,-19 -505,-55c-547.000488,-66 -1069.000488,-151 -1669.000488,-271c-121,-24 -225,-44 -231,-44c-8,0 -14,33 -19,103c-9,130 -48,346 -76,417c-50,128 -101,206 -121,186zm-134,-368c26,-113 35,-186 35,-283l0,-114l-37,-10c-75,-20 -229,-49 -293,-56c-179,-18 -454,-58 -529,-77c-66,-16 -85,-18 -91,-8c-4,7 -11,97 -14,199c-4,102 -11,213 -15,246c-6,41 -5,62 2,67c6,4 52,15 102,24c71,14 166,19 445,24c195,3 363,7 372,8c11,1 20,-7 23,-20zm3399.000488,-210c2,-7 11,-87 21,-178c20,-202 111,-936 125,-1005c5,-27 12,-77 15,-110c3,-33 10,-85 14,-115c5,-30 25,-163 44,-295c45,-302 99,-661 138,-920c16,-110 32,-216 35,-235c3,-19 12,-75 20,-125c8,-49 16,-103 19,-120c2,-16 20,-138 40,-270c19,-132 56,-384 81,-560c24,-175 47,-328 49,-340c2,-11 7,-42 9,-70c3,-27 15,-94 26,-147c11,-54 19,-101 18,-105c-1,-4 2,-37 5,-73c4,-36 9,-101 11,-145c7,-127 26,-263 51,-360c13,-49 21,-93 19,-96c-4,-8 -27,-15 -129,-44c-171,-48 -280,-113 -291,-173c-4,-24 10,-42 120,-154c128,-130 168,-184 144,-193c-25,-8 -174,-44 -233,-55c-33,-6 -87,-18 -121,-26c-100,-24 -453,-86 -724,-129c-94,-14 -370,-53 -429,-59c-30,-4 -64,-9 -75,-11c-12,-3 -217,-27 -456.000488,-55c-239,-28 -527,-62 -640,-76c-113,-15 -221,-28 -240,-30c-19,-3 -69,-9 -110,-15c-41,-6 -104,-14 -140,-19c-84,-11 -379,-56 -450,-70c-30,-5 -118,-22 -195,-36c-77,-14 -150,-28 -163,-30c-28,-6 -152,-31 -402,-83c-391,-82 -526,-99 -890,-111c-346,-11 -481,-29 -885,-115c-93,-20 -224,-48 -290,-62c-155,-33 -346,-36 -481,-9l-92,18l-7,52c-4,28 -9,60 -11,71c-4,22 -9,59 -24,190c-6,50 -15,119 -20,155c-6,36 -24,207 -40,380c-53,544 -83,794 -116,980c-41,229 -56,308 -64,345c-5,22 -23,105 -40,185c-50,238 -202,875 -235,985c-8,28 -28,102 -44,165c-31,124 -92,357 -141,540c-17,63 -44,165 -60,225c-15,61 -38,146 -50,190c-47,174 -184,703 -210,815c-9,41 -27,116 -38,165c-41,172 -72,310 -72,317c0,5 42,8 93,8c94,0 368,28 537,55c109,18 273,45 310,51c14,2 57,9 95,14c39,5 93,14 120,19c28,5 145,10 260,10c116,0 254,5 308,11c53,5 245,24 425,40c671,63 1011,106 1363,175c188,37 596,136 820,198c457,128 805,203 1179,253c116,15 422,37 765.000488,54c611,30 930,67 1200,139c133,35 125,34 129,19zm2327,-4491c67,-21 155,-82 189,-133c17,-23 30,-47 30,-52c0,-13 -15,-18 -445,-160c-665,-219 -707,-232 -717,-226c-18,12 1,116 33,183c35,70 117,163 195,221c102,77 267,148 404,175c80,16 248,12 311,-8zm1063,-419c11,-258 34,-490 62,-636c9,-47 13,-87 8,-91c-5,-5 -45,-21 -89,-36c-101,-34 -448,-155 -580,-201c-569,-200 -1451,-484 -1501,-484c-8,0 -52,75 -98,168c-46,92 -107,208 -136,257c-29,50 -61,106 -72,125c-11,19 -47,81 -79,137c-63,109 -69,128 -41,136c9,3 40,14 67,25c269,106 804,291 1025,356c47,13 162,48 255,76c185,56 587,173 675,195c30,8 152,41 270,74c118,32 218,60 221,60c4,1 10,-72 13,-161zm11,-1175c66,-19 158,-43 205,-53c47,-10 130,-32 185,-48c55,-17 177,-51 270,-77c94,-26 265,-78 380,-115c116,-38 302,-99 415,-135c349,-113 459,-189 558,-383c61,-120 130,-355 156,-537c3,-16 14,-88 25,-160c71,-463 92,-669 132,-1310c38,-620 47,-749 54,-780c2,-11 9,-81 16,-155c12,-149 13,-153 28,-294.999512c15,-134 48,-567 61,-789c13,-230 13,-813 0,-987c-9,-118 -21,-228 -34,-309c-2,-14 -7,-47 -11,-75c-8,-67 -51,-264 -76,-350c-77,-267 -181,-470 -371,-726c-148,-198 -592,-470 -968,-593c-256,-83 -465,-116 -772,-123c-321,-7 -573,18 -875,87c-236,54 -690,209 -858,293c-16,8 -88,43 -159,78c-124,59 -354,185 -443,242c-24,15 -45,27 -48,27c-14,0 -84,59 -137,115c-201,213 -339,758 -338,1342c1,251 16,395 85,778c27,148 51,294 59,360c3,22 9,72 15,110c5,39 15,142 21,230c26,380.999512 84,824.999512 145,1104.999512c8,36 19,92 24,125c6,33 16,83 22,110c5,28 14,70 18,95c5,25 32,155 60,290c58,274 129,656 161,860c77,499 143,810 227,1075c59,184 99,243 181,264c20,5 83,21 139,35c56,14 159,47 230,72c70,26 162,59 203,74c118,42 668,250 703,266c48,22 169,9 312,-33zm-2612,-51c31,-34 85,-168 141,-350c64,-207 95,-278 131,-294c21,-10 39,-6 113,22c48,18 107,35 131,38c51,6 51,25 3,-163c-58,-224 -100,-427 -152,-720c-11,-66 -25,-140 -30,-165c-5,-25 -19,-107 -31,-184l-22,-138l-56,-25c-539,-235 -855,-565 -980,-1023c-11,-41 -23,-93 -26,-115c-22,-153 -24,-157 -84,-220c-58,-61 -115,-140 -211,-295c-55,-90 -140,-200 -153,-200c-4,0 -18,9 -30,20c-12,12 -46,33 -77,48c-50,24 -65,26 -170,26c-93,0 -127,-4 -179,-23c-35,-12 -67,-19 -71,-14c-7,7 -38,156 -95,453c-16,83 -115,658 -122,705c-2,17 -11,71 -19,120c-9,50 -20,124 -25,165c-6,41 -16,107 -24,145c-8,39 -17,93 -20,120c-4,28 -9,64 -12,80c-28,178 -117.000488,751 -128.000488,825c-8,52 -17,106 -20,120c-3,14 -10,57 -16,95c-11,70 -27,164 -75,438c-14,82 -24,150 -22,152c15,13 481.000488,88 888.000488,144c162,23 338,47 390,56c52,8 133,20 180,25c136,17 596,97 710,124c129,30 143,31 163,8zm-2615.000488,-488c2,-67 0,-83 -13,-88c-9,-3 -100,-12 -203,-21c-296,-24 -394,-45 -464,-98c-77,-59 -104,-122 -67,-156c33,-31 77,-33 164,-10c44,12 89,21 100,19c76,-10 218,-1 293,19c46,12 105,23 131,24c77,3 105,-37 57,-82c-43,-40 -105,-51 -295,-51c-166,0 -181,-2 -268,-29c-104,-32 -172,-68 -202,-107c-26,-34 -26,-54 0,-88c29,-37 93,-35 222,8c139,47 294,69 443,65c98,-3 125,-8 154,-25c51,-30 50,-49 -7,-78c-57,-28 -90,-35 -238,-45c-178,-13 -221,-42 -219,-148c0,-35 6,-69 11,-74c8,-8 39,-5 105,10c108,24 253,47 355,55c63,5 72,4 77,-11c3,-10 19,-103 35,-208c17,-104 35,-212 41,-240c13,-67 38,-235 55,-370c8,-60 19,-130 24,-155c6,-25 12,-65 15,-90c12,-94 18,-146 22,-165c4,-19 27,-168 74,-480c18,-117 43.000488,-268 85.000488,-500c8,-44 26,-129 40,-190c21,-90 27,-152 35,-344.999512c10,-238 21,-343 47,-414c11,-33 11,-42 0,-53c-11,-11 -24,-3 -79,49c-171.000488,164 -406.000488,213 -833.000488,173c-209,-19 -204,-19 -209,8c-45,227 -199,1194.999512 -242,1521.999512c-8,61 -16,120 -19,132c-3,11 -14,89 -25,172c-10,84 -21,155 -24,159c-2,4 -7,45 -11,92c-4,47 -9,87 -10,90c-2,3 -22,138 -44,300c-33,236 -72,508 -106,745c-2,11 -6,45 -10,75c-3,30 -15,109 -25,175c-29,182 -50,328 -47,330c1,2 40,5 87,8c103,7 262,34 515,88c261,57 426,88 450,86c18,-2 20,-10 23,-83zm2832.000488,-1858c0,-7 -24,-35 -52,-63c-49,-45 -99,-80 -248,-173c-219,-137 -280,-237 -280,-459c1,-201 84,-451 151,-451c33,0 78,29 94,60c14,27 14,35 -5,91c-26,75 -37,183 -21,193c16,10 172,-115 166,-134c-2,-8 -10,-33 -18,-55c-8,-22 -22,-101 -31,-175c-17,-146 -29,-194 -56,-230l-18,-24l-58,35c-68,40 -159,126 -201,189c-31,48 -64,125 -84,200c-16,59 -16,259 0,335c23,111 98,284 154,356c127,166 259,260 422,300c87,22 85,22 85,5zm5142,-143c39,-25 79,-60 89,-77c25,-41 24,-51 -2,-27c-12,11 -56,40 -98,64c-89,52 -99,62 -107,108l-6,34l26,-28c15,-15 59,-48 98,-74zm335,-378c183,-284 220,-404 162,-521c-13,-27 -28,-48 -33,-46c-5,1 -8,27 -7,57c6,121 -52,302 -173,544c-83,165 -73,159 51,-34zm-385,103c32,-36 78,-123 78,-149c0,-21 -97,-112 -110,-104c-11,7 -14,285 -4,285c4,0 20,-15 36,-32zm-5207,-100c-4,-101 -6,-108 -34,-140l-28,-32l-12,52c-14,65 -5,107 27,132c35,28 48,25 47,-12zm5299,-346c6,-10 -68,-92 -83,-92c-19,0 -24,29 -10,47c15,17 69,53 81,53c4,0 9,-4 12,-8zm134,-250c-3,-21 -31,-89 -62,-151c-39,-80 -56,-125 -56,-153c0,-44 21,-93 45,-101c17,-7 21,-37 5,-37c-6,0 -32,-22 -57,-50c-25,-27 -49,-49.999512 -52,-49.999512c-9,0 -43,269.999512 -46,353.999512c-2,98 3,116 31,116c12,0 58,24 101,54c43,30 82,55 87,55c5,1 6,-16 4,-37zm-6896,-590.999512c64,-33 77,-49 139,-169c35,-69 54,-119 57,-152c9,-96 -42,-174 -143,-220c-64,-29 -168,-51 -212,-44c-122,18 -238,136 -274,278c-11,45 -10,51 32,149c37,86 50,105 87,131c60,43 106,56 192,53c56,-2 87,-9 122,-26zm-1237.000488,-626c202,-17 354,-54 423,-102c113.000488,-78 123.000488,-162 27.000488,-246c-57.000488,-50 -310.000488,-155 -495.000488,-205c-265,-72 -510,-105 -790,-106c-254,-1 -339,12 -443,67c-71,37 -102,77 -102,133c0,68 30,110 121,165c279,169 595,271 914,296c41,3 77,8 80,10c4,4 163,-3 265,-12zm637.000488,-732c51,-30 71,-65 70,-125c-1,-91 -19,-119 -119,-185c-298.000488,-195 -697.000488,-364 -1109.000488,-469c-172,-43 -428,-84 -532,-84c-108,0 -199,86 -209,199c-8,81 9,122 79,197c113,121 266,202 478,254c139,34 144,35 385,65c401,49 572,83 745,144c95.000488,34 159.000488,35 212.000488,4zm174,-674c76,-29 139,-91 149,-148c15,-90 -90,-235 -251,-347c-280,-195 -589.000488,-345 -829.000488,-400c-167,-38 -344,-13 -448,63c-72,53 -157,176 -157,228c0,8 12,28 28,45c22,25 49,36 154,65c238,65 469,156 1048.000488,414c124,55 230,100 237,100c7,1 38,-9 69,-20zm-1766.000488,-637c0,-21 11,-79 24,-128c64,-246 225,-439 440,-526c97,-40 145,-49 255,-49l96,-1l2,-151c1,-149 20,-349 48,-517c8,-47 17,-107 20,-135c4,-27 10,-77 15,-110c5,-33 12,-78 15,-100c3,-22 8,-46 11,-54c2,-7 8,-95 14,-195c8,-166 0,-439 -13,-453c-6,-5 -39,11 -122,61c-367,221 -668,683 -810,1246c-13,52 -28,122 -34,155c-6,33 -13,71 -16,85c-31,153 -32,650 -2,760c8,30 18,73 22,95c8,45 12,55 26,55c5,0 9,-17 9,-38zm1940.000488,-154c0,-146 52,-681 91,-932c11,-72 24,-162 29,-201c5,-38 16,-110 25,-160c28,-166 112,-703 119,-760c2,-22 9,-69 15,-105c8,-55 46,-400 54,-494c2,-27 -1,-30 -48,-43c-27,-7 -122,-27 -210,-43c-88,-17 -230,-44 -317,-61c-86,-16 -191,-41 -234,-54c-44,-13 -82.000488,-21 -85.000488,-17c-6,6 -35,184 -73,442c-15,101 -29,214 -41,330c-78,743 -131,1135 -196,1453c-11,55 -19,100 -17,101c2,2 56,31 121,65c316.000488,165 552.000488,317 692.000488,445c33,30 63,55 68,56c4,0 7,-10 7,-22zm9144,-40c3,-7 25,-87 51,-178c26,-91 61,-210 77,-265c39,-133 63,-280 54,-336l-7,-45l-87,9c-181,18 -580,-9 -827,-58c-38,-7 -88,-16 -110,-19c-22,-4 -80,-15 -130,-26c-247,-53 -426,-90 -433,-90c-5,0 -12,37 -16,83c-7,95 -4,76 -50,282c-20,88 -39,185 -42,215l-6,55l168,23c404,57 907,188 1244,325c96,39 109,42 114,25zm76,-1124c51,-8 115,-33 200,-77c287,-150 614,-477 754,-755c54,-107 103,-291 121,-455c9,-77 5,-370 -6,-436c-59,-373 -152,-563 -329,-673c-195,-122 -493,-221 -715,-238c-108,-8 -242,0 -315,20c-107,29 -169,220 -106,325c68,113 78,132 83,161l5,31l-138,7c-337,17 -521,101 -611,280c-23,45 -25,58 -20,131c12,182 40,230 185,316c48,29 101,63 118,76c37,28 80,88 89,124c6,25 5,25 -37,23c-153,-10 -306,-39 -588,-111c-804,-203 -882,-220 -1070,-229c-123,-6 -252,11 -311,40c-18,9 -36,16 -41,16c-6,0 -35,20 -67,45c-52,41 -58,49 -69,103c-7,32 -12,71 -12,88c0,54 40,186 70,235c16,27 28,49 25,49c-12,0 106,117 157,155c110,83 397,230 587,301c267,101 671,228 881,278c221,53 753,150 915,167c50,5 95,11 100,13c11,5 92,-1 145,-10z"/>
   <path id="svg_3" d="m5813.997559,17494.003906c-5,-2 -35,-8 -66,-14c-45,-9 -58,-16 -58,-29c0,-10 -9,-44 -20,-75c-11,-32 -22,-80 -26,-107l-7,-49l40,0c22,0 65,-5 97,-11c67,-12 127,-5 158,20c18,15 22,31 25,97c3,49 -1,96 -9,124l-14,45l-55,1c-31,0 -60,-1 -65,-2z"/>
   <path id="svg_4" d="m6994.997559,12531.003906l-90,-6l-19,-58c-18,-56 -18,-58 0,-109c23,-62 74,-103 146,-116c61,-12 108,5 159,56c45,47 48,67 18,149c-29,78 -44,93 -88,91c-20,-1 -76,-4 -126,-7z"/>
   <path id="svg_5" d="m11564.998047,11332.003906c-64,-22 -105,-51 -150,-107c-75,-91 -93,-211 -47,-315c26,-61 106,-138 157,-151c108,-29 281,44 350,150c39,59 59,154 46,219c-21,107 -83,180 -173,207c-67,19 -121,19 -183,-3zm100,-233c8,-23 -1,-67 -17,-86c-18,-22 -85,-16 -108,9c-33,36 -26,54 33,77c67,26 84,26 92,0z"/>
   <path id="svg_6" d="m12562.998047,11279.003906c-64,-12 -116,-43 -168,-101c-97,-108 -142,-264 -100,-352c71,-149 338,-179 493,-57c73,58 96,112 89,210c-13,191 -158,330 -314,300zm75,-281c16,-16 15,-63 -2,-77c-8,-7 -30,-15 -49,-18c-32,-5 -37,-2 -52,27c-15,29 -15,34 0,56c12,18 24,24 53,24c21,0 43,-5 50,-12z"/>
   <path id="svg_7" d="m11204.998047,10236.003906c-16,-7 -40,-25 -53,-39c-22,-23 -23,-27 -9,-54c58,-112 207,-185 497,-244c52,-11 111,-24 130,-29c19,-4 58,-11 85,-14c55,-7 218,-33 455,-73c136,-23 171,-25 290,-19c204,10 344,49 413,116c31,30 72,157 63,194c-14,56 -149,72 -299,36c-218,-52 -341,-62 -522,-41c-44,5 -129,12 -190,15c-237,11 -457,52 -609,111c-129,50 -205,63 -251,41z"/>
   <path id="svg_8" d="m14150.998047,9769.003906c-62,-15 -123,-78 -143,-149c-8,-30 -13,-60 -11,-66c6,-17 52,-21 120,-13c32,4 84,8 116,8c68,1 73,-11 30,-74c-97,-146 -227,-242 -399,-298c-70,-23 -108,-32 -219,-52c-147,-27 -473,-29 -705,-5c-379,39 -658,60 -910,70c-162,6 -367,18 -455,26c-168,16 -249,13 -300,-13c-39,-20 -45,-30 -45,-75c0,-53 8,-66 52,-89c54,-28 115,-37 322,-49c101,-6 189,-15 204,-23c16,-8 60,-70 124,-177c463,-770.999512 711,-1107.999512 966,-1312.999512c103,-83 164,-121 247,-154c65,-25 80,-27 215,-27c127,0 153,3 210,23c159,58 266,128 391,258c94,98 155,183 212,298c83,168 107,283 107,509.999512c0,135 -26,425 -49,560c-5,28 -6,55 -3,61c4,6 63,71 132,143c69,72 145,161 168,196c24,36 48,65 53,65c16,0 58,-74 75,-130c24,-80 54,-140 70,-140c28,0 93,40 118,73c61,80 49,225 -26,318c-27,32 -127,99 -213,142c-170,85 -344,122 -454,96zm-1391,-884c124,-8 257,-17 295,-20c236,-17 372,-25 462,-25l101,0l7,-82c3,-46 5,-162 3,-258l-3,-175l-55,-12c-81,-17 -338,-15 -475,3c-65,8 -122,17 -126,20c-4,2 -65,7 -135,10c-146,7 -143,6 -206,98c-101,147 -238,431 -222,458c4,7 30,8 68,4c33,-3 162,-12 286,-21zm706,-844.999512c-6,-32 -35,-77 -111,-170c-24,-30 -47,-67 -50,-82c-4,-18 -13,-28 -25,-28c-44,0 -144,61 -167,103c-18,32 -16,78 6,114c15,24 33,35 73,47c89,26 169,40 252,44c27,2 28,0 22,-28zm270,-71c23,-25 74,-52 132,-69c23,-7 42,-16 42,-19c0,-20 -127,-126 -195,-163c-75,-40 -85,-43 -157,-43c-42,0 -82,5 -88,11c-7,7 3,34 36,95c57,102 83,135 143,176c55,38 62,39 87,12z"/>
   <path id="svg_9" d="m12816.998047,7296.004395c-3,-7 -1,-31 3,-52c34,-149 148,-264 395,-399c39,-21 95,-53 125,-72l56,-33l48,16c26,9 50,23 53,30c15,40 -79,149 -150,175c-59,21 -44,47 32,54c19,2 69,-3 113,-10c78,-14 118,-13 169,6c38,15 33,72 -8,105c-63,49 -130,65 -388,95c-149,16 -190,26 -278,64c-85,37 -160,46 -170,21z"/>
   <path id="svg_10" d="m10253.998047,4493.004395c4,-16 9,-56 13,-89l6,-62l-44,-43c-25,-24 -101,-82 -169,-128c-166,-112 -291,-237 -343,-342c-122,-247 -47,-527 187,-694c317,-226 800,-197 1037,63c141,154 190,394 124,602c-15,47 -40,110 -56,141c-34,68 -130,196 -196,261c-113,111 -305,232 -467,293c-88,33 -100,33 -92,-2zm210,-159c165,-84 321,-219 410,-353c61,-91 94,-174 113,-280c13,-78 13,-94 -2,-177c-22,-124 -60,-201 -138,-279c-171,-170 -464,-213 -720,-104c-100,42 -217,137 -217,175c0,32 43,19 131,-42c51,-36 111,-69 134,-75c22,-7 59,-20 82,-30c51,-23 122,-25 149,-4c10,8 16,15 12,16c-5,1 -11,2 -15,3c-5,2 -28,6 -53,10c-45,7 -70,34 -70,73c0,8 -7,16 -16,20c-8,3 -13,11 -11,17c3,7 -3,30 -14,52c-23,49 -23,63 -2,86c14,16 15,23 3,59c-8,23 -22,52 -32,64c-11,15 -18,40 -18,68c0,38 -3,46 -22,50c-25,7 -77,-4 -156,-32c-43,-15 -60,-16 -82,-8c-22,8 -35,8 -54,-2c-39,-21 -56,-8 -56,41c0,60 18,90 60,101c19,5 41,13 47,19c7,6 20,7 29,4c24,-9 44,12 44,48c0,17 7,40 15,50c8,11 15,28 15,38c0,10 7,18 14,18c8,0 28,13 43,29c15,16 40,32 56,35c36,9 34,2 -9,-24c-54,-34 -67,-90 -21,-90c11,0 30,9 41,19c21,19 103,51 131,51c22,0 26,14 52,174c13,83 27,166 30,184c3,17 10,32 17,32c6,0 42,-16 80,-36z"/>
   <path id="svg_11" d="m10558.998047,4099.004395c-19,-38 -23,-41 -52,-37c-44,7 -57,1 -57,-28c0,-13 -5,-24 -11,-24c-8,0 -8,-5 1,-15c7,-8 19,-15 26,-15c25,0 15,-35 -22,-73c-20,-20 -31,-37 -25,-37c6,0 11,-9 11,-19c0,-15 -8,-21 -32,-23c-28,-2 -34,-8 -36,-30c-3,-27 -1,-28 41,-28c39,0 46,4 68,38c20,29 30,36 51,34c15,-1 29,2 33,8c10,16 21,12 65,-25c46,-38 60,-43 60,-20c0,12 4,13 18,6c10,-6 28,-7 40,-4c15,4 24,0 29,-12c8,-22 -23,-47 -53,-43c-12,2 -28,-3 -36,-10c-10,-8 -31,-10 -62,-6c-36,5 -46,11 -46,25c0,25 -16,24 -111,-8c-70,-24 -82,-31 -94,-59c-7,-18 -23,-35 -34,-39c-22,-7 -26,-18 -39,-95c-9,-55 5,-89 54,-126c34,-26 35,-26 154,-19l120,7l0,-27c0,-15 9,-38 20,-52c22,-28 26,-58 10,-68c-14,-9 -8,-84 8,-90c16,-6 40,4 82,34c106,77 179,216 180,344c0,30 -4,37 -20,37c-11,0 -20,4 -20,8c0,4 -23,32 -50,62c-28,30 -46,56 -40,58c14,5 56,-34 78,-70c22,-38 36,-35 52,11c17,54 7,91 -25,91c-16,0 -25,6 -25,15c0,8 6,15 14,15c28,0 25,18 -12,91c-45,91 -133,181 -219,227c-34,17 -64,32 -67,32c-3,0 -15,-19 -27,-41z"/>
   <path id="svg_12" d="m9911.998047,3768.004395c-14,-14 -16,-28 -3,-28c9,0 24,30 18,36c-2,2 -9,-2 -15,-8z"/>
  </g>
  <text transform="rotate(-8, 638.781, 592.011) matrix(1.30867, 0, 0, 1.82625, -105.723, -454.156)" font-weight="bold" xml:space="preserve" text-anchor="start" font-family="Arvo, sans-serif" font-size="250" id="svg_13" y="640.831027" x="360.301301" stroke-width="0" stroke="#000" fill="#000000">404</text>
 </g>
</svg>