<svg xmlns="http://www.w3.org/2000/svg" width="88.505" height="88.506"><g data-name="Gruppe 1139"><path data-name="Pfad 4910" d="M88.505 44.254A44.253 44.253 0 1144.253 0a44.253 44.253 0 0144.252 44.254" fill="#008fc3"/><g data-name="Gruppe 1138"><g data-name="Gruppe 13"><path data-name="Pfad 13" d="M29.838 61.62c.121.123.2.215.289.3a17.988 17.988 0 004.716 3 23.521 23.521 0 009.437 1.924 26.294 26.294 0 003.832-.261 26.427 26.427 0 006.576-1.783 21.729 21.729 0 006.6-4.217 16.725 16.725 0 004.578-7.144 19.8 19.8 0 00.84-7.141 20.358 20.358 0 00-.909-5.059 23.98 23.98 0 00-6.261-9.981 35.39 35.39 0 00-9.884-6.751 48.059 48.059 0 00-10.483-3.484.616.616 0 00-.387-.043 1.274 1.274 0 00.023.126 6.126 6.126 0 01.032 3.46.522.522 0 00-.029.241c.043.312.075.625.112.937.149 1.2.261 2.405.353 3.612.054.774.126 1.542.155 2.313a18.4 18.4 0 01.006 2.835.477.477 0 00.014.18c.141.47.049.663-.413.851-.619.258-1.235.519-1.84.811a8.326 8.326 0 00-2.356 1.614 11.66 11.66 0 00-1.152 1.379.732.732 0 01-.467.312 1.266 1.266 0 01-1.35-1.052 1.67 1.67 0 01.186-.943 5.453 5.453 0 01.989-1.31c.356-.367.734-.7 1.112-1.046a3.027 3.027 0 00.642-1.058.51.51 0 00-.326.1 4.044 4.044 0 01-.78.413c-.332.155-.662.313-1 .462a2.21 2.21 0 00-1.307 1.691c-.038.2-.1.393-.155.588a.675.675 0 01-.364.427 1.179 1.179 0 01-1.061.163.9.9 0 00.261.57.507.507 0 01.126.508 8.129 8.129 0 01-.313 1.02c-.121.324-.249.643-.341.978a1.26 1.26 0 00-.009.691c.058.218.121.433.178.648a2.2 2.2 0 01-.287 1.757.6.6 0 01-.963.141c-.123-.109-.232-.229-.359-.332a.706.706 0 00-.447-.2.931.931 0 01-.539.958c-.221.143-.442.3-.668.427-.556.319-1.118.631-1.68.941a.393.393 0 00-.238.344 17.774 17.774 0 00-.023 3.079c.031.447.071.894.146 1.336.02.12.066.175.192.178a5.544 5.544 0 001.4-.092c.39-.089.464-.183.505-.576a.659.659 0 01.745-.668 5.328 5.328 0 01.64.052 3.243 3.243 0 011.146.283.511.511 0 00.53.009c.089-.046.183-.086.272-.135a22.718 22.718 0 002.29-1.4 11.626 11.626 0 012.787-1.43 4.031 4.031 0 011.49-.278 1.451 1.451 0 011.4 1 2.425 2.425 0 01.135.622c.026.367.038.734.038 1.1a1.078 1.078 0 00.653 1.078 3.18 3.18 0 011.1.94 11.9 11.9 0 011.126 1.74 1.565 1.565 0 01.072 1.382c-.115.3-.275.588-.419.883-.249.513-.3.413.063.958a12.244 12.244 0 001.102 1.341 3.945 3.945 0 01.685 1.078 1.139 1.139 0 01.146.553c-.038.3.132.4.364.464.069.017.138.04.206.057a.687.687 0 01.47 1.026c-.038.086-.132.158-.106.286.138.029.275.055.41.086a.834.834 0 01.763.911.9.9 0 00.028.376 2.8 2.8 0 011.124-.115c.6.04 1.2.072 1.8.115a1.15 1.15 0 00.562-.095 1.239 1.239 0 01.647-.149.452.452 0 01.4.659.817.817 0 01-.26.333 3.264 3.264 0 01-.571.352 9.122 9.122 0 01-2.25.743 4.173 4.173 0 01-2.489-.158 4.028 4.028 0 00-.883-.223c-.768-.109-1.542-.1-2.313-.172a9.336 9.336 0 01-2.333-.477 61.917 61.917 0 01-3.872-1.568 51.14 51.14 0 01-2.652-1.244c-.223-.112-.232-.109-.338.106a1.179 1.179 0 01-.754.622 3.553 3.553 0 01-.863.115m4.664-45.378a1.646 1.646 0 00.619.109 50.691 50.691 0 0111.527 2.7 44.915 44.915 0 0111.977 6.427 34.021 34.021 0 017.926 8.31 25.663 25.663 0 013.77 8.812 23.615 23.615 0 01.473 3.443 22.54 22.54 0 01-.023 3.322 20.716 20.716 0 01-4.959 12.134 24.9 24.9 0 01-7.748 5.994 31.675 31.675 0 01-8.826 2.932 33.1 33.1 0 01-7.018.522 29.525 29.525 0 01-10.312-2.118 22.006 22.006 0 01-7.6-5.054 19.635 19.635 0 01-5.074-9.552 19.628 19.628 0 01-.476-5.24 19.875 19.875 0 011.537-6.717 29.032 29.032 0 013.864-6.484 61.382 61.382 0 014.318-4.943c1.3-1.365 2.628-2.7 3.881-4.105a19.934 19.934 0 001.648-2.078c.192-.289.364-.587.527-.894a3.228 3.228 0 00.309-2.273 8.792 8.792 0 00-1.506-3.34 1.471 1.471 0 01-.258-.482 1.082 1.082 0 01.6-1.316c.072-.034.166-.028.212-.109z" fill="#fff"/></g><g data-name="Gruppe 25"><path data-name="Pfad 25" d="M57.46 40.943a2.487 2.487 0 00.238.112 6.248 6.248 0 012.213 1.373 6.936 6.936 0 001.74 1.169 5.81 5.81 0 011.224.743c.166.141.2.126.384-.029a1.07 1.07 0 01.2-.143.4.4 0 01.553.158 1.025 1.025 0 01.12.342 16.154 16.154 0 01.311 4.883 16.727 16.727 0 01-1.66 6.083 14.765 14.765 0 01-4.025 5.039 1.087 1.087 0 01-.757.258c-.155-.008-.307-.011-.459-.028a.4.4 0 01-.39-.364 3.74 3.74 0 00-.45-1.413c-.1-.2-.186-.407-.281-.608a.517.517 0 01.083-.6 2.257 2.257 0 00.252-.382 1.169 1.169 0 00-.005-1.166 2.948 2.948 0 00-.476-.634 10.226 10.226 0 00-1.128-.979.614.614 0 01-.264-.627c.106-.831-.238-1.2-1.078-1.2a5.094 5.094 0 00-1.64.327 7.059 7.059 0 00-1.935.952 1.22 1.22 0 01-.476.2c-.94.175-1.88.344-2.818.53a1.948 1.948 0 01-1.129-.089 24.1 24.1 0 01-2.54-1.2.6.6 0 01-.336-.444 1.2 1.2 0 00-.126-.373.453.453 0 00-.341-.269c-.307-.052-.407-.183-.393-.479a11.545 11.545 0 00-.209-2.3 5.532 5.532 0 01-.106-1.728 2.2 2.2 0 01.785-1.433 6.581 6.581 0 01.568-.413.907.907 0 00.427-.765c.02-.272.035-.547.063-.82a1.278 1.278 0 01.639-1.044 57.092 57.092 0 014.128-2.239c.321-.16.645-.307.969-.453a1.785 1.785 0 01.347-.118.419.419 0 01.568.439 1.618 1.618 0 00.049.453.3.3 0 00.309.235 3.436 3.436 0 001.055-.132 1.3 1.3 0 01.923.044 1.764 1.764 0 00.5.115.96.96 0 001.089-.68 2.077 2.077 0 00.057-.235.5.5 0 01.553-.456 4.273 4.273 0 001.267-.198 1.915 1.915 0 001.066-.774 1.252 1.252 0 00.155-1.109.765.765 0 00-1.126-.464 2.02 2.02 0 00-.507.387.584.584 0 01-.774.121c-.289-.146-.576-.3-.862-.453a.585.585 0 00-.2-.083.28.28 0 00-.281.075c-.055.078.014.158.052.223a4.2 4.2 0 00.243.387.408.408 0 01.055.481.452.452 0 01-.456.183.892.892 0 01-.393-.16c-.631-.39-1.253-.794-1.915-1.138a5.861 5.861 0 00-1.645-.628.874.874 0 00-.422 0c-.118.038-.18.1-.1.226a.345.345 0 01.041.081.57.57 0 01-.53.814.776.776 0 01-.439-.109.315.315 0 00-.339 0 2.286 2.286 0 00-1.342 1.6c-.1.456-.232.906-.341 1.359a.618.618 0 01-.49.487c-.668.175-1.336.353-2.006.519a.561.561 0 01-.745-.39 2.662 2.662 0 01-.118-1.56.575.575 0 01.568-.424c.384-.044.768-.083 1.152-.129.484-.055.51-.086.47-.564 0-.061-.015-.121-.021-.181-.017-.367-.263-.524-.573-.613-.178-.052-.378-.075-.421-.29s.114-.332.26-.447a2.389 2.389 0 00.522-.51 1.35 1.35 0 00.289-.851.544.544 0 01.27-.51 2.177 2.177 0 00.424-.347.215.215 0 00.02-.321c-.22-.281-.206-.4.032-.66.063-.066.129-.129.186-.2.1-.126.054-.235-.106-.252a1.532 1.532 0 00-.456.035 3.071 3.071 0 01-.791.037 1.247 1.247 0 01-.628-.212.367.367 0 01-.051-.651c.095-.089.2-.172.289-.269.169-.18.178-.209.032-.419a1.1 1.1 0 01.005-1.287.707.707 0 01.508-.353c.556-.08 1.106-.155 1.66-.232a4.236 4.236 0 00.507-.115.464.464 0 00.37-.422 10.557 10.557 0 01.476-1.8 2.733 2.733 0 01.3-.63.324.324 0 01.364-.152A21.125 21.125 0 0156.446 31a21.216 21.216 0 013.946 3.857 39.83 39.83 0 011.485 1.941.442.442 0 01-.081.708c-.1.089-.2.169-.3.258a.681.681 0 01-.791.109c-.109-.046-.241-.178-.33-.083-.106.112.04.238.1.344a1.906 1.906 0 00.9.794c.178.086.249.066.33-.12a.532.532 0 01.885-.172 2.485 2.485 0 01.867 1.621 7.37 7.37 0 01-.152 2.362 2.9 2.9 0 01-.089.416.446.446 0 01-.745.235 1.667 1.667 0 01-.216-.213 15.725 15.725 0 00-2.115-1.885 5.091 5.091 0 00-1.164-.662.854.854 0 00-.894.066c-.18.132-.384.226-.622.367" fill="#fff"/></g></g></g></svg>